<svg width="334" height="294" viewBox="0 0 334 294" fill="none" xmlns="http://www.w3.org/2000/svg">
<g clip-path="url(#clip0)">
<path d="M190.274 260.095C187.964 256.564 184.838 253.981 180.907 253.014C177.48 252.171 173.956 252.314 170.472 252.344L126.418 252.715C122.645 252.746 119.028 256.315 119.203 260.592C119.377 264.832 122.374 268.503 126.418 268.469C139.323 268.36 152.227 268.252 165.132 268.143C168.174 268.117 171.218 268.057 174.261 268.068C174.944 268.071 175.624 268.11 176.307 268.119C176.472 268.121 176.592 268.119 176.676 268.115C176.697 268.122 176.715 268.129 176.742 268.137C177.098 268.243 177.464 268.317 177.822 268.418C177.696 268.423 178.054 268.666 178.234 268.749C178.259 268.802 178.311 268.896 178.399 269.042C178.522 269.293 178.885 270.055 178.9 270.031C179.445 271.537 179.895 273.082 180.247 274.656C181.085 278.125 181.269 278.85 181.39 282.105C181.543 286.217 184.599 290.178 188.605 289.982C192.383 289.798 195.984 286.515 195.82 282.105C195.544 274.674 194.35 266.327 190.274 260.095Z" fill="#E6E6E6"/>
<path d="M129.008 277.87C128.18 272.396 127.369 266.918 126.525 261.447C125.669 255.896 123.921 250.814 119.965 247.171C118.908 246.198 117.812 245.289 116.711 244.383C116.324 244.065 115.938 243.746 115.555 243.42C115.532 243.401 115.518 243.389 115.498 243.372C115.456 243.332 115.405 243.285 115.338 243.223C113.689 241.699 112.095 240.108 110.578 238.416C109.23 236.914 107.941 235.347 106.711 233.717C106.404 233.31 106.1 232.899 105.801 232.484C105.749 232.413 105.472 232.021 105.289 231.766C105.119 231.51 104.808 231.049 104.756 230.968C104.406 230.428 104.063 229.883 103.725 229.333C101.427 225.574 99.4373 221.601 97.7787 217.46C97.6142 217.05 97.4536 216.636 97.2969 216.221C97.2549 216.094 97.2005 215.931 97.1283 215.715C96.794 214.711 96.4604 213.709 96.1548 212.693C95.5055 210.537 94.9473 208.348 94.4801 206.128C94.2491 205.031 94.0412 203.929 93.8563 202.822C93.761 202.252 93.6718 201.682 93.5888 201.11C93.5751 201.015 93.4941 200.398 93.4463 200.049C93.4111 199.699 93.3455 199.078 93.3367 198.983C93.2838 198.406 93.237 197.829 93.196 197.251C93.1037 195.952 93.0414 194.65 93.0089 193.346C92.9534 191.028 92.9914 188.711 93.1229 186.393C93.1978 185.091 93.3043 183.793 93.4356 182.496C93.4435 182.417 93.4497 182.353 93.4554 182.296C93.4633 182.238 93.4726 182.173 93.4836 182.091C93.5807 181.375 93.6828 180.659 93.7971 179.946C94.2299 177.239 94.7927 174.558 95.4833 171.915C95.8103 170.665 96.1654 169.425 96.5488 168.195C96.7196 167.649 96.8959 167.105 97.0777 166.564C97.0658 166.599 97.6107 165.079 97.618 165.028C99.7802 159.45 103.317 154.366 103.322 148.03C103.325 143.74 100.001 139.631 96.1066 139.829C94.1651 139.909 92.3277 140.809 90.9818 142.338C89.6359 143.868 88.8865 145.909 88.8916 148.03C88.8916 148.126 88.8912 148.208 88.8909 148.288C88.8546 148.422 88.8242 148.533 88.7969 148.632C88.3753 149.632 87.8587 150.583 87.3959 151.558C86.1285 154.228 85.0467 156.986 84.0191 159.784C82.3368 164.341 81.0492 169.059 80.1729 173.878C78.2684 184.437 78.1205 195.283 79.7365 205.899C82.534 224.515 91.7593 242.335 104.585 254.313C105.698 255.352 106.838 256.357 107.989 257.341C108.465 257.748 108.945 258.148 109.428 258.545C109.656 258.733 110.601 259.547 110.185 259.152C111.079 259.985 111.456 260.404 111.685 261.018C111.718 261.16 111.764 261.352 111.825 261.614C111.987 262.306 112.141 262.996 112.268 263.698C113.385 269.828 114.161 276.061 115.093 282.231C115.734 286.47 120.514 289.229 123.969 287.958C127.989 286.479 129.695 282.413 129.008 277.87Z" fill="#E6E6E6"/>
<path d="M177.429 304.003C174.399 304.011 171.49 302.707 169.339 300.377C167.188 298.046 165.972 294.88 165.957 291.572V282.586C157.34 283.639 127.834 283.395 119.375 281.911V291.212C119.353 294.518 118.134 297.679 115.985 300.008C113.836 302.337 110.931 303.643 107.903 303.643C104.876 303.643 101.971 302.337 99.8218 300.008C97.6729 297.679 96.4542 294.518 96.4315 291.212V272.951C84.9757 266.003 75.4257 255.843 68.767 243.521C62.1083 231.198 58.5822 217.158 58.5526 202.851C58.5526 178.319 68.7361 155.434 86.4922 140.064C98.037 130.037 112.064 124.006 126.771 122.747C128.768 122.576 130.776 122.49 132.741 122.49C139.664 122.49 191.986 108.824 199.823 111.286L156.919 143.952L196.606 106.76C196.869 106.472 197.204 106.275 197.569 106.196C197.935 106.116 198.314 106.157 198.658 106.314C199.004 106.464 199.301 106.726 199.509 107.064C199.717 107.402 199.826 107.8 199.823 108.208V111.286L203.303 107.523C203.565 107.234 203.9 107.038 204.265 106.958C204.63 106.878 205.009 106.919 205.353 107.076C205.7 107.227 205.997 107.488 206.205 107.826C206.413 108.164 206.523 108.563 206.52 108.971V143.366C215.486 152.192 160.516 144.25 164.612 156.649C229.289 192.373 231.744 201.404 230.002 214.446C228.259 227.489 223.597 239.86 216.427 250.465C209.258 261.07 199.803 269.58 188.901 275.242V291.572C188.886 294.88 187.67 298.046 185.52 300.377C183.369 302.707 180.459 304.011 177.429 304.003ZM187.999 274.62L166.859 291.572C166.882 294.616 168.006 297.527 169.986 299.671C171.965 301.815 174.641 303.018 177.429 303.018C180.218 303.018 182.893 301.815 184.873 299.671C186.853 297.527 187.977 294.616 187.999 291.572V274.62L140.386 192.373C152.618 186.036 150.249 171.193 157.632 158.802C167.041 142.989 231.58 211.062 229.289 192.373C226.998 173.684 218.654 156.507 205.768 143.952L157.632 158.802L205.618 108.971C205.621 108.759 205.565 108.551 205.456 108.376C205.348 108.2 205.193 108.065 205.013 107.988C204.833 107.904 204.634 107.882 204.443 107.923C204.251 107.965 204.075 108.069 203.939 108.221L157.632 158.802L198.921 108.208C198.924 107.996 198.868 107.788 198.76 107.613C198.652 107.437 198.497 107.302 198.316 107.225C198.136 107.141 197.937 107.119 197.745 107.161C197.553 107.203 197.377 107.307 197.24 107.46L178.988 127.233L178.729 127.144C171.443 124.655 139.717 123.474 132.741 123.474C130.799 123.474 128.815 123.56 126.842 123.729C112.313 124.973 98.457 130.93 87.0526 140.835C69.5135 156.017 131.846 103.003 131.846 127.233C131.876 141.414 193.203 99.085 199.823 111.286C188.446 104.444 206.443 123.486 199.823 111.286L97.3334 272.371L137.616 196.398C137.639 199.442 129.403 232.04 100.46 299.31C102.44 301.454 129.953 210.278 132.741 210.278C135.529 210.278 113.367 301.454 115.347 299.31C117.326 297.167 118.45 294.256 118.474 291.212L111.781 282.586L119.008 280.842C126.609 282.404 132.651 193.481 140.386 192.373L164.192 233.496L187.999 274.62Z" fill="white"/>
<path d="M129.87 58.6438L79.9325 75.0281C78.3442 75.5513 77.011 76.7415 76.226 78.3372C75.4409 79.9328 75.2681 81.8035 75.7456 83.5381C76.223 85.2728 77.3116 86.7296 78.7723 87.5885C80.233 88.4474 81.9462 88.6382 83.5356 88.1189L127.236 73.7776L128.152 73.4773C128.337 68.3269 129.617 63.2942 131.89 58.7767C131.605 58.6366 131.3 58.55 130.988 58.5207C130.611 58.4809 130.231 58.5227 129.87 58.6438Z" fill="#D72D2E"/>
<path d="M82.672 91.6119C82.0091 91.6102 81.3635 91.381 80.8263 90.9569C80.2892 90.5327 79.8878 89.935 79.6787 89.2482L76.556 78.9607C76.4256 78.5311 76.374 78.0777 76.4041 77.6263C76.4342 77.1749 76.5455 76.7344 76.7315 76.3299C76.9176 75.9255 77.1748 75.565 77.4885 75.2691C77.8022 74.9732 78.1661 74.7476 78.5597 74.6053L119.203 59.8997C119.597 59.7573 120.012 59.7009 120.426 59.7338C120.839 59.7666 121.243 59.888 121.613 60.0911C121.983 60.2942 122.314 60.5749 122.585 60.9173C122.856 61.2597 123.062 61.657 123.193 62.0866L126.315 72.374C126.575 73.2202 126.523 74.1435 126.17 74.9484C125.817 75.7534 125.191 76.3767 124.425 76.6864C124.387 76.7018 124.349 76.7163 124.311 76.7299L83.668 91.435C83.3468 91.5519 83.0105 91.6116 82.672 91.6119Z" fill="#2F2E41"/>
<path d="M158.788 40.3738C150.585 40.3772 142.705 43.8654 136.816 50.0999C130.927 56.3345 127.492 64.8261 127.236 73.7775C127.227 74.1271 127.223 74.4816 127.223 74.836C127.223 81.652 129.074 88.3149 132.542 93.9822C136.011 99.6495 140.941 104.067 146.709 106.675C152.477 109.283 158.823 109.966 164.947 108.636C171.07 107.306 176.694 104.024 181.109 99.2045C185.523 94.3849 188.53 88.2443 189.748 81.5593C190.966 74.8743 190.341 67.9451 187.951 61.6479C185.562 55.3508 181.516 49.9685 176.325 46.1817C171.134 42.395 165.031 40.3738 158.788 40.3738ZM158.788 108.314C150.658 108.304 142.864 104.774 137.115 98.4981C131.366 92.2218 128.133 83.712 128.124 74.836C128.124 74.3782 128.133 73.9252 128.152 73.4772C128.396 66.9195 130.4 60.5847 133.916 55.2607C137.431 49.9367 142.302 45.8583 147.924 43.5326C153.545 41.2069 159.669 40.7366 165.533 42.1801C171.398 43.6236 176.744 46.9173 180.908 51.6515C185.071 56.3858 187.868 62.3518 188.951 68.8076C190.034 75.2635 189.354 81.9244 186.997 87.9621C184.64 93.9998 180.71 99.148 175.694 102.766C170.679 106.385 164.8 108.314 158.788 108.314Z" fill="#3F3D56"/>
<path d="M185.394 74.8361C185.394 82.5398 182.591 89.928 177.601 95.3753C172.612 100.823 165.845 103.883 158.788 103.883C151.732 103.883 144.965 100.823 139.975 95.3753C134.986 89.928 132.183 82.5398 132.183 74.8361C132.183 73.9155 132.223 73.0096 132.3 72.1136C132.941 64.6788 136.181 57.7991 141.345 52.9032C146.51 48.0072 153.204 45.4711 160.037 45.8215C166.869 46.1719 173.316 49.3818 178.037 54.7847C182.759 60.1876 185.394 67.3684 185.394 74.8361Z" fill="#E6E6E6"/>
<path d="M166.711 76.766C166.066 75.8403 165.218 75.1071 164.245 74.6342C163.044 74.0819 161.805 73.6373 160.538 73.305V65.3983C162.485 65.7188 164.311 66.6278 165.809 68.0224L167.28 64.6008C166.434 63.7784 165.463 63.1236 164.411 62.666C163.246 62.1505 162.022 61.8078 160.772 61.6469V57.6394H157.368V61.6863C156.053 61.8475 154.785 62.3124 153.648 63.05C152.62 63.7139 151.755 64.6396 151.127 65.7479C150.527 66.8295 150.216 68.0726 150.23 69.3369C150.171 70.7069 150.535 72.0589 151.262 73.177C151.932 74.145 152.817 74.9108 153.832 75.4022C155.052 75.9709 156.313 76.427 157.602 76.766V84.3427C155.305 84.1535 153.116 83.1999 151.33 81.6104L149.86 85.0369C150.858 85.9382 151.994 86.6413 153.215 87.1145C154.553 87.6372 155.95 87.9553 157.368 88.0597V92.0328H160.772V87.9859C162.664 87.7603 164.437 86.8725 165.828 85.4554C166.44 84.8142 166.924 84.0411 167.248 83.1852C167.573 82.3293 167.731 81.4091 167.713 80.483C167.769 79.1566 167.417 77.8478 166.711 76.766ZM157.602 72.468C156.773 72.1934 156.002 71.7416 155.334 71.1388C155.069 70.8817 154.86 70.5639 154.722 70.2081C154.583 69.8523 154.518 69.4673 154.532 69.0809C154.507 68.204 154.802 67.3523 155.352 66.7128C155.962 66.0419 156.749 65.596 157.602 65.4377V72.468ZM162.676 82.9446C162.1 83.5887 161.351 84.0148 160.538 84.1606V77.6423C161.315 77.87 162.042 78.2668 162.676 78.8091C162.916 79.0329 163.106 79.3129 163.234 79.6283C163.361 79.9436 163.421 80.2863 163.411 80.6307C163.442 81.4756 163.179 82.3022 162.676 82.9446Z" fill="#D72D2E"/>
<path d="M84.1213 133.306C83.4242 133.305 82.747 133.052 82.1946 132.588C81.6423 132.124 81.2456 131.473 81.0662 130.738L79.3661 123.713C79.1533 122.83 79.27 121.89 79.6906 121.101C80.1111 120.312 80.8013 119.737 81.6096 119.503L135.245 104.029C136.054 103.799 136.914 103.928 137.637 104.387C138.359 104.847 138.886 105.601 139.101 106.484L140.541 112.436L140.271 112.459C126.515 113.626 113.354 119.071 102.344 128.149L102.265 128.191L84.9222 133.192C84.6608 133.268 84.3916 133.306 84.1213 133.306Z" fill="#2F2E41"/>
<path d="M75.2383 168.007C68.9467 166.993 62.9294 164.509 57.5966 160.725C54.9546 158.852 52.5089 156.668 50.3031 154.212C48.126 151.788 46.0433 149.033 44.965 145.804C43.9275 142.817 43.981 139.509 45.1144 136.564C46.2323 133.636 48.3678 131.313 51.0527 130.102C53.7536 128.926 57.0169 128.8 59.6455 130.088C60.8981 130.687 61.982 131.64 62.786 132.848C63.1597 133.404 63.4365 134.032 63.6024 134.698C63.7563 135.301 63.7703 135.937 63.6431 136.549C63.489 137.159 63.2171 137.726 62.8458 138.211C62.4746 138.697 62.0124 139.091 61.4904 139.366C60.3414 140.01 59.0966 140.424 57.8143 140.59C56.5245 140.782 54.6718 140.957 53.6349 139.826C53.4215 139.603 53.2536 139.333 53.1423 139.033C53.0643 138.804 53.0377 138.558 53.0645 138.316C53.0494 138.423 53.1271 138.083 53.1226 138.097C53.1062 138.147 53.0352 138.269 53.1362 138.081C53.1677 138.019 53.2028 137.96 53.2413 137.902C53.207 137.951 53.1318 138.032 53.2662 137.893C53.3772 137.76 53.52 137.664 53.6784 137.615C53.7409 137.595 53.8042 137.58 53.8668 137.561C54.0258 137.513 53.7082 137.563 53.871 137.558C53.9338 137.556 53.9973 137.557 54.0599 137.554C54.2195 137.546 53.9024 137.507 54.0554 137.549C54.1148 137.565 54.1736 137.581 54.2322 137.601C54.3594 137.645 54.1421 137.499 54.2283 137.608C54.3293 137.736 54.1222 137.484 54.237 137.608C54.2942 137.669 54.348 137.734 54.3983 137.802C54.5974 138.016 54.866 138.137 55.1458 138.137C55.4256 138.137 55.6941 138.016 55.8932 137.802C56.0855 137.582 56.1929 137.29 56.1929 136.986C56.1929 136.682 56.0855 136.389 55.8932 136.17C54.8509 134.759 52.7921 135.108 51.7377 136.3C50.393 137.82 50.9255 140.23 52.2335 141.557C53.7142 143.059 55.8114 143.163 57.7162 142.911C59.3259 142.743 60.8946 142.259 62.3469 141.482C63.79 140.708 64.9187 139.377 65.5143 137.747C65.7833 136.877 65.8799 135.954 65.7978 135.04C65.7156 134.126 65.4566 133.241 65.038 132.445C63.3563 128.993 59.874 127.224 56.4321 126.917C54.66 126.765 52.8779 126.999 51.1891 127.604C49.5002 128.21 47.9381 129.175 46.5931 130.443C44.0007 132.991 42.4043 136.53 42.1341 140.327C41.8337 144.263 43.2326 148.086 45.2723 151.263C47.4076 154.491 49.9557 157.368 52.8388 159.807C58.4753 164.719 65.0869 168.124 72.1444 169.747C72.9839 169.936 73.8279 170.098 74.6764 170.233C74.9463 170.304 75.2311 170.261 75.4727 170.111C75.7142 169.961 75.8945 169.717 75.9766 169.427C76.0491 169.132 76.0123 168.818 75.8741 168.552C75.7359 168.286 75.5076 168.091 75.2384 168.007L75.2383 168.007Z" fill="#3F3D56"/>
<path d="M175.972 117.852C166.753 117.71 157.564 117.965 148.404 118.618C145.273 118.841 142.564 120.05 142.564 122.08C142.564 123.778 145.252 125.767 148.404 125.542C157.56 124.889 166.749 124.634 175.972 124.776C183.491 124.892 183.486 117.968 175.972 117.852Z" fill="#CCCCCC"/>
<path d="M162.347 124.433C161.351 124.433 137.949 124.392 137.949 120.863C137.949 117.334 161.351 117.294 162.347 117.294C163.343 117.294 186.745 117.334 186.745 120.863C186.745 124.392 163.343 124.433 162.347 124.433ZM138.864 120.863C139.504 121.933 148.106 123.448 162.347 123.448C176.588 123.448 185.19 121.933 185.83 120.863C185.19 119.793 176.588 118.278 162.347 118.278C148.106 118.278 139.504 119.793 138.864 120.863V120.863Z" fill="#3F3D56"/>
<path d="M228.082 220.419C233.263 220.262 239.71 220.066 244.677 216.104C246.156 214.876 247.372 213.31 248.238 211.515C249.104 209.721 249.6 207.741 249.692 205.715C249.793 202.586 248.758 199.855 246.777 198.028C244.182 195.634 240.394 195.073 236.312 196.383L240.541 162.635L237.436 162.171L232.464 201.845L235.057 200.546C238.063 199.041 242.189 198.275 244.754 200.641C245.383 201.259 245.874 202.028 246.187 202.887C246.5 203.746 246.628 204.673 246.56 205.594C246.484 207.102 246.111 208.575 245.467 209.912C244.823 211.248 243.923 212.418 242.828 213.341C238.963 216.423 233.824 216.821 227.995 216.999L228.082 220.419Z" fill="white"/>
<path d="M228.011 162.337H211.131V165.759H228.011V162.337Z" fill="#101010"/>
<path d="M91.7596 149.043C91.0082 149.041 90.2823 148.746 89.7118 148.212C89.1413 147.678 88.7636 146.94 88.6463 146.13L87.616 138.951C87.4873 138.048 87.6919 137.127 88.1849 136.388C88.678 135.65 89.4192 135.155 90.2459 135.013L145.049 125.638C145.876 125.497 146.72 125.721 147.397 126.259C148.073 126.797 148.526 127.607 148.656 128.509L149.687 135.688C149.815 136.591 149.611 137.513 149.118 138.251C148.625 138.989 147.884 139.484 147.057 139.626L92.2534 149.001C92.09 149.029 91.9249 149.043 91.7596 149.043Z" fill="#2F2E41"/>
<path d="M69.0792 64.9144C81.7806 64.9144 92.0771 53.6731 92.0771 39.8062C92.0771 25.9393 81.7806 14.698 69.0792 14.698C56.3778 14.698 46.0812 25.9393 46.0812 39.8062C46.0812 53.6731 56.3778 64.9144 69.0792 64.9144Z" fill="#D72D2E"/>
<path d="M82.1002 46.3028C82.8352 46.0221 83.5067 45.5729 84.0694 44.9853C84.4417 44.5663 84.7256 44.0636 84.9013 43.5122C85.0769 42.9609 85.14 42.3743 85.0862 41.7936C85.0549 41.3796 84.9364 40.9792 84.7399 40.6236C84.5433 40.2679 84.2742 39.9667 83.9534 39.7435C83.1211 39.1847 82.0213 39.2058 80.9109 39.7678L80.7828 29.9668L79.881 29.9808L80.0316 41.5029L80.7181 41.0113C81.5141 40.4423 82.6579 40.0296 83.4808 40.5822C83.6844 40.7285 83.8542 40.9241 83.9773 41.1538C84.1003 41.3834 84.1731 41.641 84.1901 41.9063C84.2281 42.339 84.1802 42.7755 84.0498 43.1861C83.9193 43.5968 83.7094 43.9719 83.4342 44.286C82.4566 45.3451 81.0096 45.6999 79.3581 46.0245L79.5179 46.9934C80.3958 46.8479 81.2601 46.6167 82.1002 46.3028Z" fill="#2F2E41"/>
<path d="M90.0693 29.2788L85.2667 30.0729L85.4018 31.0463L90.2044 30.2523L90.0693 29.2788Z" fill="#2F2E41"/>
<path d="M74.9102 31.7847L70.1075 32.5788L70.2426 33.5522L75.0452 32.7581L74.9102 31.7847Z" fill="#2F2E41"/>
<path d="M84.2773 148.604C83.4502 148.602 82.6432 148.325 81.9638 147.81C81.2844 147.296 80.7647 146.567 80.4738 145.722L64.6174 99.3606C62.6793 93.6747 62.8863 87.3817 65.1928 81.8622C67.4994 76.3427 71.7172 72.0475 76.9209 69.9189L89.814 64.6628C90.3126 64.4582 90.8433 64.3632 91.3756 64.3834C91.9079 64.4036 92.4313 64.5385 92.9156 64.7804C93.3988 65.016 93.8341 65.3545 94.1961 65.776C94.5581 66.1974 94.8395 66.6934 95.0239 67.235L124.397 127.782C124.587 128.328 124.677 128.91 124.661 129.494C124.645 130.078 124.523 130.653 124.303 131.185C124.083 131.718 123.768 132.198 123.377 132.597C122.987 132.996 122.527 133.307 122.026 133.512L85.6956 148.323C85.242 148.508 84.7617 148.604 84.2773 148.604Z" fill="#2F2E41"/>
<path d="M85.9023 66.2573L115.046 108.806L95.3258 66.7039C95.1629 66.2127 94.913 65.7613 94.5903 65.3755C94.2676 64.9897 93.8784 64.6771 93.4451 64.4556C93.0117 64.234 92.5426 64.1078 92.0645 64.0843C91.5865 64.0607 91.1089 64.1402 90.659 64.3181L85.9023 66.2573Z" fill="#E6E6E6"/>
<path d="M132.048 98.5707L80.0115 94.9113C79.1913 94.8536 78.3895 94.6201 77.652 94.2241C76.9144 93.8282 76.2555 93.2775 75.7129 92.6035C75.1703 91.9295 74.7545 91.1454 74.4895 90.2961C74.2244 89.4467 74.1151 88.5486 74.168 87.6531C74.2208 86.7576 74.4347 85.8823 74.7974 85.077C75.1601 84.2718 75.6645 83.5524 76.2818 82.96C76.8991 82.3676 77.6173 81.9137 78.3953 81.6243C79.1733 81.3349 79.9959 81.2157 80.8161 81.2733L132.852 84.9325C133.237 84.9595 133.612 85.0688 133.958 85.2543C134.303 85.4397 134.611 85.6976 134.866 86.0132C135.12 86.3288 135.314 86.696 135.439 87.0938C135.563 87.4916 135.614 87.9122 135.589 88.3315L135.161 95.583C135.111 96.4299 134.755 97.2205 134.171 97.7808C133.587 98.3411 132.824 98.6253 132.048 98.5707Z" fill="#D72D2E"/>
<path d="M118.143 100.917C118.074 100.917 118.005 100.914 117.936 100.909H117.936L75.2069 97.9046C74.7932 97.8756 74.3888 97.7579 74.0168 97.5582C73.6448 97.3585 73.3125 97.0808 73.0388 96.7409C72.7652 96.401 72.5555 96.0055 72.4218 95.5771C72.2881 95.1488 72.233 94.6958 72.2597 94.2442L72.9904 81.8584C73.017 81.4067 73.1249 80.9652 73.3079 80.5591C73.4908 80.153 73.7452 79.7902 74.0566 79.4915C74.368 79.1927 74.7302 78.9638 75.1226 78.8179C75.515 78.672 75.9299 78.6119 76.3436 78.641L119.073 81.6456C119.908 81.7053 120.687 82.1243 121.24 82.8105C121.792 83.4967 122.073 84.3942 122.02 85.306L121.289 97.6921C121.249 98.3558 121.034 98.9927 120.671 99.5263C120.307 100.06 119.81 100.468 119.239 100.701C118.889 100.844 118.517 100.917 118.143 100.917Z" fill="#2F2E41"/>
<path d="M68.8155 23.1097C71.841 20.2689 75.9957 22.8102 79.4653 22.3653C82.7847 21.9397 85.4058 18.6889 86.0754 15.2354C86.8566 11.2063 84.941 7.16965 82.1177 4.65756C79.0254 1.9062 74.9242 1.11635 71.0379 1.62537C66.5837 2.20877 62.5101 4.47557 58.8549 7.21738C55.3267 9.78192 52.0821 12.7836 49.186 16.1624C46.5926 19.2894 44.3953 23.0168 43.6936 27.2247C43.056 31.0487 43.5429 35.2864 45.6135 38.5259C46.7115 40.1863 48.1829 41.5097 49.8858 42.3686C51.6613 43.3204 53.5553 44.0009 55.2755 45.0771C57.8764 46.7044 60.4043 50.0785 59.5895 53.5898C59.4149 54.3568 59.0702 55.0652 58.5857 55.6526C58.0037 56.358 56.9539 55.4259 57.5375 54.7186C58.5624 53.4765 58.522 51.8199 57.9758 50.3369C57.3263 48.6658 56.1762 47.285 54.714 46.4209C52.9134 45.2969 50.9254 44.6032 49.0799 43.5794C47.3135 42.6442 45.7802 41.2569 44.6105 39.5356C42.4017 36.1844 41.741 31.823 42.2419 27.7884C42.784 23.4223 44.8387 19.4548 47.4145 16.1301C50.2176 12.5118 53.6608 9.44906 57.1784 6.69758C60.9528 3.74523 65.1228 1.24921 69.7371 0.346446C73.737 -0.436113 78.0726 0.0456797 81.5704 2.42547C84.8353 4.64685 87.3389 8.46807 87.5879 12.7379C87.6773 14.6807 87.2909 16.6143 86.4685 18.3399C85.6461 20.0655 84.4174 21.5207 82.9089 22.5557C81.3609 23.5671 79.5612 24.0222 77.7637 23.8571C75.8419 23.7228 73.9184 23.0803 71.9844 23.2587C71.1092 23.3167 70.2752 23.6846 69.6088 24.3066C68.9478 24.9273 68.16 23.7253 68.8155 23.1097V23.1097Z" fill="#2F2E41"/>
<path d="M333.463 294H0.5369C0.394768 294 0.2586 293.938 0.158243 293.828C0.0578854 293.718 0.00152588 293.569 0.00152588 293.414C0.00152588 293.259 0.0578854 293.11 0.158243 293C0.2586 292.89 0.394768 292.828 0.5369 292.828H333.463C333.605 292.828 333.742 292.889 333.843 292.999C333.943 293.109 334 293.258 334 293.414C334 293.569 333.943 293.718 333.843 293.828C333.742 293.938 333.605 294 333.463 294Z" fill="#3F3D56"/>
</g>
<defs>
<clipPath id="clip0">
<rect width="334" height="294" fill="white"/>
</clipPath>
</defs>
</svg>
