<svg width="453" height="313" viewBox="0 0 453 313" fill="none" xmlns="http://www.w3.org/2000/svg">
<g clip-path="url(#clip0)">
<path d="M412.384 163.205C406.277 180.423 397.767 196.698 387.107 211.549C386.861 211.895 386.612 212.232 386.36 212.576L354.015 202.13C354.161 201.797 354.321 201.424 354.491 201.017C364.677 176.99 425.982 30.5335 419.472 0C420.094 2.50725 440.405 85.4577 412.384 163.205Z" fill="#E6E6E6"/>
<path d="M393.347 213.565C392.952 213.861 392.545 214.155 392.134 214.44L367.87 206.604C368.16 206.337 368.498 206.022 368.887 205.666C375.238 199.746 394.108 182.008 412.384 163.205C432.024 142.998 450.983 121.563 453 112.241C452.621 114.368 440.654 179.076 393.347 213.565Z" fill="#E6E6E6"/>
<path d="M429.899 313H13.9471C10.2481 313 6.7006 311.535 4.08501 308.927C1.46942 306.319 0 302.781 0 299.093C150.783 281.619 298.731 281.619 443.846 299.093C443.846 302.781 442.377 306.319 439.761 308.927C437.146 311.535 433.598 313 429.899 313Z" fill="#2F2E41"/>
<path d="M443.846 299.911L0 299.092L51.4402 212.785L51.6864 212.375V22.1623C51.6862 19.8536 52.1421 17.5674 53.028 15.4343C53.914 13.3012 55.2126 11.3631 56.8498 9.73052C58.4871 8.09796 60.4307 6.80299 62.5699 5.91955C64.709 5.0361 67.0018 4.5815 69.3171 4.5817H372.068C374.383 4.5815 376.676 5.03611 378.815 5.91955C380.954 6.803 382.898 8.09797 384.535 9.73052C386.172 11.3631 387.471 13.3012 388.357 15.4343C389.243 17.5674 389.699 19.8536 389.699 22.1623V213.684L443.846 299.911Z" fill="#3F3D56"/>
<path d="M68.9151 16.853C67.3925 16.8547 65.9328 17.4586 64.8561 18.5322C63.7795 19.6057 63.1739 21.0613 63.1722 22.5796V196.014C63.174 197.532 63.7796 198.988 64.8562 200.061C65.9329 201.135 67.3925 201.739 68.9151 201.74H374.931C376.454 201.738 377.913 201.135 378.99 200.061C380.067 198.987 380.672 197.532 380.674 196.014V22.5796C380.672 21.0614 380.067 19.6058 378.99 18.5322C377.913 17.4587 376.454 16.8548 374.931 16.853H68.9151Z" fill="white"/>
<path d="M70.9263 224.647C70.4558 224.648 69.9953 224.782 69.5991 225.035C69.203 225.289 68.8876 225.649 68.6902 226.075L52.8398 260.435C52.6673 260.809 52.5918 261.22 52.6204 261.63C52.6489 262.041 52.7806 262.438 53.0032 262.785C53.2259 263.131 53.5324 263.416 53.8945 263.614C54.2567 263.811 54.6628 263.915 55.0756 263.915H388.4C388.819 263.915 389.232 263.808 389.598 263.604C389.965 263.4 390.273 263.107 390.493 262.751C390.714 262.395 390.839 261.989 390.858 261.571C390.877 261.153 390.788 260.737 390.601 260.363L373.372 226.003C373.169 225.595 372.855 225.251 372.466 225.012C372.077 224.772 371.628 224.645 371.171 224.647L70.9263 224.647Z" fill="#2F2E41"/>
<path d="M220.692 13.9898C222.731 13.9898 224.384 12.3415 224.384 10.3084C224.384 8.27519 222.731 6.62698 220.692 6.62698C218.654 6.62698 217.001 8.27519 217.001 10.3084C217.001 12.3415 218.654 13.9898 220.692 13.9898Z" fill="white"/>
<path d="M187.929 270.459C187.388 270.46 186.863 270.638 186.433 270.966C186.004 271.295 185.694 271.755 185.553 272.275L181.577 287.001C181.479 287.365 181.466 287.746 181.539 288.116C181.613 288.485 181.77 288.833 182 289.132C182.23 289.431 182.525 289.673 182.864 289.84C183.203 290.007 183.576 290.093 183.954 290.093H259.566C259.959 290.093 260.345 290 260.694 289.821C261.043 289.641 261.343 289.381 261.571 289.063C261.798 288.744 261.946 288.376 262.002 287.988C262.058 287.601 262.02 287.206 261.891 286.836L256.78 272.111C256.612 271.629 256.298 271.211 255.881 270.915C255.464 270.619 254.966 270.46 254.454 270.46L187.929 270.459Z" fill="#2F2E41"/>
<path d="M389.699 209.512V212.785H51.44L51.6948 212.376V209.512H389.699Z" fill="#2F2E41"/>
<path d="M284.535 47.4952H204.726V48.9488H284.535C288.464 48.9488 292.233 50.5052 295.011 53.2757C297.789 56.0462 299.35 59.8038 299.35 63.7218C299.35 67.6399 297.789 71.3975 295.011 74.168C292.233 76.9385 288.464 78.4949 284.535 78.4949H163.77C159.841 78.4949 156.073 76.9385 153.294 74.168C150.516 71.3975 148.955 67.6399 148.955 63.7218C148.955 59.8038 150.516 56.0462 153.294 53.2757C156.073 50.5052 159.841 48.9488 163.77 48.9488H168.283V47.4952H163.77C159.456 47.4977 155.319 49.2084 152.27 52.2512C149.22 55.294 147.507 59.4199 147.507 63.7218C147.507 68.0238 149.22 72.1496 152.27 75.1924C155.319 78.2352 159.456 79.9459 163.77 79.9485H284.535C286.673 79.9497 288.79 79.5309 290.765 78.716C292.741 77.9011 294.536 76.7061 296.048 75.1992C297.56 73.6923 298.759 71.903 299.578 69.9337C300.396 67.9644 300.817 65.8535 300.817 63.7218C300.817 61.5901 300.396 59.4793 299.578 57.51C298.759 55.5406 297.56 53.7514 296.048 52.2445C294.536 50.7376 292.741 49.5425 290.765 48.7276C288.79 47.9127 286.673 47.4939 284.535 47.4952Z" fill="#E6E6E6"/>
<path d="M284.535 97.6433H204.726V99.0969H284.535C288.463 99.0993 292.229 100.657 295.005 103.427C297.781 106.197 299.341 109.953 299.341 113.87C299.341 117.786 297.781 121.543 295.005 124.313C292.229 127.083 288.463 128.641 284.535 128.643H163.77C159.841 128.643 156.073 127.087 153.294 124.316C150.516 121.546 148.955 117.788 148.955 113.87C148.955 109.952 150.516 106.194 153.294 103.424C156.073 100.653 159.841 99.0969 163.77 99.0969H168.283V97.6433H163.77C159.456 97.6458 155.319 99.3565 152.27 102.399C149.22 105.442 147.507 109.568 147.507 113.87C147.507 118.172 149.22 122.298 152.27 125.341C155.319 128.383 159.456 130.094 163.77 130.097H284.535C286.673 130.098 288.79 129.679 290.765 128.864C292.741 128.049 294.536 126.854 296.048 125.347C297.56 123.84 298.759 122.051 299.578 120.082C300.396 118.112 300.817 116.002 300.817 113.87C300.817 111.738 300.396 109.627 299.578 107.658C298.759 105.689 297.56 103.9 296.048 102.393C294.536 100.886 292.741 99.6907 290.765 98.8758C288.79 98.0609 286.673 97.6421 284.535 97.6433Z" fill="#E6E6E6"/>
<path d="M284.535 147.791H204.726V149.245H284.535C288.464 149.245 292.232 150.801 295.011 153.572C297.789 156.342 299.35 160.1 299.35 164.018C299.35 167.936 297.789 171.694 295.011 174.464C292.232 177.235 288.464 178.791 284.535 178.791H163.77C159.841 178.791 156.073 177.235 153.294 174.464C150.516 171.694 148.955 167.936 148.955 164.018C148.955 160.1 150.516 156.342 153.294 153.572C156.073 150.801 159.841 149.245 163.77 149.245H168.283V147.791H163.77C159.454 147.791 155.315 149.501 152.263 152.544C149.212 155.587 147.497 159.715 147.497 164.018C147.497 168.322 149.212 172.449 152.263 175.492C155.315 178.535 159.454 180.245 163.77 180.245H284.535C286.672 180.245 288.788 179.825 290.762 179.01C292.737 178.194 294.531 176.999 296.042 175.492C297.553 173.985 298.751 172.196 299.569 170.228C300.387 168.259 300.808 166.149 300.808 164.018C300.808 161.887 300.387 159.777 299.569 157.808C298.751 155.84 297.553 154.051 296.042 152.544C294.531 151.037 292.737 149.842 290.762 149.027C288.788 148.211 286.672 147.791 284.535 147.791Z" fill="#E6E6E6"/>
<path d="M177.292 43.6551C176.154 43.6736 175.07 44.1369 174.272 44.9454C173.475 45.7538 173.028 46.8425 173.028 47.9766C173.028 49.1107 173.475 50.1994 174.272 51.0079C175.07 51.8163 176.154 52.2797 177.292 52.2981H196.304C196.873 52.3074 197.439 52.2049 197.968 51.9963C198.498 51.7877 198.981 51.4772 199.39 51.0825C199.799 50.6878 200.126 50.2167 200.352 49.6959C200.578 49.1752 200.7 48.6151 200.709 48.0476C200.719 47.4801 200.616 46.9163 200.407 46.3884C200.197 45.8605 199.886 45.3789 199.49 44.971C199.094 44.5632 198.622 44.237 198.1 44.0112C197.577 43.7855 197.016 43.6645 196.447 43.6551C196.399 43.6543 196.352 43.6543 196.304 43.6551H177.292Z" fill="#3F3D56"/>
<path d="M177.291 94.5299C176.154 94.5483 175.07 95.0117 174.272 95.8201C173.475 96.6286 173.028 97.7173 173.028 98.8514C173.028 99.9855 173.475 101.074 174.272 101.883C175.07 102.691 176.154 103.154 177.291 103.173H196.304C197.454 103.192 198.563 102.754 199.39 101.957C200.216 101.16 200.69 100.068 200.709 98.9223C200.728 97.7762 200.29 96.6696 199.49 95.8458C198.691 95.0221 197.596 94.5487 196.447 94.5299C196.399 94.5291 196.352 94.5291 196.304 94.5299H177.291Z" fill="#3F3D56"/>
<path d="M177.291 143.951C176.154 143.97 175.07 144.433 174.272 145.242C173.475 146.05 173.028 147.139 173.028 148.273C173.028 149.407 173.475 150.496 174.272 151.304C175.07 152.112 176.154 152.576 177.291 152.594H196.304C197.454 152.613 198.563 152.176 199.39 151.379C200.216 150.582 200.69 149.49 200.709 148.344C200.728 147.198 200.29 146.091 199.49 145.267C198.691 144.444 197.596 143.97 196.447 143.951C196.399 143.951 196.352 143.951 196.304 143.951H177.291Z" fill="#3F3D56"/>
<path d="M169.75 59.4004C168.613 59.4189 167.529 59.8823 166.731 60.6907C165.933 61.4991 165.486 62.5878 165.486 63.7219C165.486 64.8561 165.933 65.9447 166.731 66.7532C167.529 67.5616 168.613 68.025 169.75 68.0434H278.412C278.982 68.0527 279.547 67.9502 280.076 67.7416C280.606 67.533 281.089 67.2226 281.498 66.8279C281.907 66.4332 282.234 65.962 282.46 65.4412C282.687 64.9205 282.808 64.3604 282.817 63.7929C282.827 63.2254 282.724 62.6616 282.515 62.1337C282.306 61.6058 281.994 61.1242 281.598 60.7164C281.203 60.3085 280.73 59.9823 280.208 59.7565C279.686 59.5308 279.124 59.4098 278.555 59.4004C278.507 59.3996 278.46 59.3996 278.412 59.4004H169.75Z" fill="#D72D2E"/>
<path d="M169.75 109.549C168.613 109.567 167.529 110.03 166.731 110.839C165.934 111.647 165.487 112.736 165.487 113.87C165.487 115.004 165.934 116.093 166.731 116.901C167.529 117.71 168.613 118.173 169.75 118.191H278.412C278.982 118.201 279.547 118.098 280.076 117.89C280.606 117.681 281.089 117.371 281.498 116.976C281.907 116.581 282.234 116.11 282.46 115.589C282.687 115.069 282.808 114.508 282.817 113.941C282.827 113.373 282.724 112.81 282.515 112.282C282.306 111.754 281.994 111.272 281.598 110.864C281.203 110.457 280.73 110.13 280.208 109.905C279.686 109.679 279.124 109.558 278.555 109.549C278.507 109.548 278.46 109.548 278.412 109.549H169.75Z" fill="#D72D2E"/>
<path d="M169.75 159.697C168.613 159.715 167.529 160.178 166.731 160.987C165.934 161.795 165.487 162.884 165.487 164.018C165.487 165.152 165.934 166.241 166.731 167.049C167.529 167.858 168.613 168.321 169.75 168.34H278.412C278.982 168.349 279.547 168.246 280.076 168.038C280.606 167.829 281.089 167.519 281.498 167.124C281.907 166.729 282.234 166.258 282.46 165.737C282.687 165.217 282.808 164.656 282.817 164.089C282.827 163.521 282.724 162.958 282.515 162.43C282.306 161.902 281.994 161.42 281.598 161.012C281.203 160.605 280.73 160.278 280.208 160.053C279.686 159.827 279.124 159.706 278.555 159.697C278.507 159.696 278.46 159.696 278.412 159.697H169.75Z" fill="#E6E6E6"/>
<path d="M129.392 72.0358C134.185 72.0358 138.071 68.1612 138.071 63.3816C138.071 58.6019 134.185 54.7273 129.392 54.7273C124.599 54.7273 120.713 58.6019 120.713 63.3816C120.713 68.1612 124.599 72.0358 129.392 72.0358Z" fill="#D72D2E"/>
<path d="M128.587 66.9371L126.059 63.6955L127.529 62.555L128.726 64.0898L132.77 59.8328L134.123 61.1107L128.587 66.9371Z" fill="white"/>
<path d="M129.392 122.184C134.185 122.184 138.071 118.309 138.071 113.53C138.071 108.75 134.185 104.875 129.392 104.875C124.599 104.875 120.713 108.75 120.713 113.53C120.713 118.309 124.599 122.184 129.392 122.184Z" fill="#D72D2E"/>
<path d="M128.587 117.085L126.059 113.844L127.529 112.703L128.726 114.238L132.77 109.981L134.123 111.259L128.587 117.085Z" fill="white"/>
<path d="M129.392 172.332C134.185 172.332 138.071 168.457 138.071 163.678C138.071 158.898 134.185 155.023 129.392 155.023C124.599 155.023 120.713 158.898 120.713 163.678C120.713 168.457 124.599 172.332 129.392 172.332Z" fill="#E6E6E6"/>
<path d="M319.624 72.0358C324.417 72.0358 328.302 68.1612 328.302 63.3816C328.302 58.6019 324.417 54.7273 319.624 54.7273C314.83 54.7273 310.945 58.6019 310.945 63.3816C310.945 68.1612 314.83 72.0358 319.624 72.0358Z" fill="#E6E6E6"/>
<path d="M319.624 122.184C324.417 122.184 328.302 118.309 328.302 113.53C328.302 108.75 324.417 104.875 319.624 104.875C314.83 104.875 310.945 108.75 310.945 113.53C310.945 118.309 314.83 122.184 319.624 122.184Z" fill="#E6E6E6"/>
<path d="M319.624 172.332C324.417 172.332 328.302 168.457 328.302 163.678C328.302 158.898 324.417 155.023 319.624 155.023C314.83 155.023 310.945 158.898 310.945 163.678C310.945 168.457 314.83 172.332 319.624 172.332Z" fill="#E6E6E6"/>
<path d="M128.587 167.233L126.059 163.992L127.529 162.851L128.726 164.386L132.77 160.129L134.123 161.406L128.587 167.233Z" fill="white"/>
<path d="M317.431 60.6016L316.708 61.322L321.561 66.1612L322.284 65.4409L317.431 60.6016Z" fill="white"/>
<path d="M321.817 60.6018L316.964 65.441L317.686 66.1614L322.539 61.3221L321.817 60.6018Z" fill="white"/>
<path d="M317.431 110.75L316.708 111.47L321.561 116.309L322.284 115.589L317.431 110.75Z" fill="white"/>
<path d="M321.817 110.75L316.964 115.589L317.686 116.309L322.539 111.47L321.817 110.75Z" fill="white"/>
<path d="M317.431 160.898L316.708 161.618L321.561 166.457L322.284 165.737L317.431 160.898Z" fill="white"/>
<path d="M321.817 160.898L316.964 165.737L317.686 166.457L322.539 161.618L321.817 160.898Z" fill="white"/>
<path d="M131.062 160.211C131.818 159.712 132.456 159.056 132.933 158.287C133.41 157.519 133.714 156.656 133.824 155.759C133.935 154.862 133.849 153.952 133.572 153.091C133.295 152.231 132.835 151.44 132.222 150.774L123.89 141.718L115.888 145.759L122.013 157.822C122.412 158.608 122.974 159.301 123.661 159.856C124.348 160.411 125.145 160.814 126 161.04C126.855 161.265 127.747 161.308 128.62 161.165C129.492 161.022 130.324 160.697 131.062 160.211Z" fill="#FFB8B8"/>
<path d="M23.3599 187.106C24.2601 187.002 25.127 186.704 25.9006 186.233C26.6743 185.762 27.3364 185.13 27.8411 184.379C28.3459 183.628 28.6814 182.777 28.8245 181.885C28.9675 180.993 28.9148 180.08 28.6698 179.21L25.339 167.377H16.369V180.899C16.369 181.78 16.5561 182.652 16.9179 183.456C17.2797 184.26 17.8081 184.979 18.4683 185.566C19.1286 186.152 19.9058 186.592 20.7488 186.858C21.5919 187.123 22.4817 187.208 23.3599 187.106Z" fill="#FFB8B8"/>
<path d="M75.1721 276.368L92.1158 273.718L85.1392 266.429H75.1721V276.368Z" fill="#FFB8B8"/>
<path d="M20.6879 277.03L38.2956 281.668C35.0526 274.96 33.0555 269.024 34.309 265.104L26.0034 264.11L20.6879 277.03Z" fill="#FFB8B8"/>
<path d="M24.3421 265.766L34.6413 267.754L62.8801 176.984L74.84 267.423H85.8035L84.8065 139.55H42.2822L24.3421 265.766Z" fill="#575A88"/>
<path d="M78.416 280.39L95.1757 274.893C95.6203 274.747 96.0282 274.508 96.3717 274.19C96.7152 273.873 96.9861 273.486 97.1661 273.055C97.3461 272.624 97.4309 272.16 97.4147 271.693C97.3986 271.227 97.2819 270.769 97.0726 270.352C96.7851 269.779 96.3341 269.303 95.7763 268.985C95.2185 268.666 94.5787 268.52 93.9375 268.563L90.1357 268.819L88.6458 267.983C88.4888 267.895 88.3082 267.858 88.1291 267.877C87.95 267.896 87.7813 267.97 87.6464 268.089C87.5115 268.208 87.4172 268.366 87.3765 268.541C87.3358 268.716 87.3508 268.899 87.4194 269.065L88.7933 272.392L74.84 271.398L74.1516 276.89C74.0832 277.436 74.1543 277.989 74.3582 278.5C74.562 279.011 74.8921 279.462 75.3176 279.811C75.7432 280.16 76.2504 280.396 76.7921 280.498C77.3338 280.599 77.8924 280.562 78.416 280.39Z" fill="#575A88"/>
<path d="M21.7703 282.917L39.9887 284.095C40.4721 284.127 40.9565 284.054 41.409 283.882C41.8616 283.709 42.2717 283.442 42.6113 283.098C42.951 282.754 43.2123 282.34 43.3775 281.886C43.5427 281.432 43.608 280.948 43.5687 280.467C43.5148 279.806 43.2662 279.175 42.854 278.655C42.4418 278.134 41.8845 277.747 41.2522 277.541L37.5034 276.323L36.397 274.947C36.2804 274.802 36.1215 274.696 35.9422 274.646C35.7629 274.595 35.5722 274.601 35.3966 274.663C35.221 274.726 35.0692 274.841 34.9624 274.993C34.8556 275.145 34.799 275.327 34.8005 275.513L34.8306 279.236L21.8207 272.908L19.0324 277.915C18.7555 278.412 18.6093 278.971 18.6072 279.54C18.6051 280.108 18.7472 280.668 19.0205 281.168C19.2937 281.667 19.6891 282.089 20.1699 282.395C20.6506 282.701 21.2012 282.881 21.7703 282.917Z" fill="#575A88"/>
<path d="M60.5545 67.9942C67.3433 67.9942 72.8467 62.5065 72.8467 55.737C72.8467 48.9675 67.3433 43.4797 60.5545 43.4797C53.7657 43.4797 48.2623 48.9675 48.2623 55.737C48.2623 62.5065 53.7657 67.9942 60.5545 67.9942Z" fill="#FFB8B8"/>
<path d="M52.5812 78.2638H69.5245V62.0312H52.5812C53.9814 67.0444 53.8003 72.5067 52.5812 78.2638Z" fill="#FFB8B8"/>
<path d="M39.9567 141.207L86.4678 141.869L91.1189 92.8711C91.1189 89.6744 90.1148 86.5579 88.2477 83.9593C86.3805 81.3606 83.744 79.4104 80.7084 78.3824L73.5111 75.945L69.5245 71.3071C64.4911 70.2225 59.0147 70.4854 53.2456 71.6384L48.9267 77.9326L44.2759 79.4127C41.1153 80.4185 38.3684 82.4217 36.4491 85.1201C34.5298 87.8186 33.5423 91.066 33.6355 94.3729C37.0962 112.197 39.7872 128.763 39.9567 141.207Z" fill="#D72D2E"/>
<path d="M14.7079 167.377L26.3357 168.702L39.6245 115.367L40.9534 80.9141L40.5611 81.1034C37.4853 82.5875 34.7983 84.7653 32.713 87.4645C30.6277 90.1636 29.2013 93.3099 28.5469 96.6541L14.7079 167.377Z" fill="#D72D2E"/>
<path d="M116.368 147.501L125.338 143.194L99.0278 94.2399C95.2068 87.1303 88.9952 81.5909 81.4845 78.5952L86.4678 109.735L116.368 147.501Z" fill="#D72D2E"/>
<path d="M52.9571 66.7692C52.9571 66.7692 65.0107 66.0564 65.2717 63.9774C65.5326 61.8985 67.2925 57.156 69.3774 57.4162C71.4623 57.6764 77.2403 50.7459 76.0028 47.952C74.7654 45.1582 68.9247 34.872 57.0008 39.6129C45.0769 44.3538 46.4433 56.2433 47.6808 59.0371C48.9183 61.831 52.9571 66.7692 52.9571 66.7692Z" fill="#2F2E41"/>
<path d="M347.947 217.008C347.815 217.008 347.687 217.052 347.583 217.132C347.478 217.212 347.403 217.324 347.369 217.451L346.4 221.036C346.376 221.125 346.373 221.218 346.391 221.308C346.409 221.398 346.447 221.483 346.503 221.555C346.559 221.628 346.631 221.687 346.714 221.728C346.796 221.768 346.887 221.789 346.979 221.789H365.392C365.487 221.789 365.582 221.767 365.666 221.723C365.751 221.679 365.825 221.616 365.88 221.538C365.935 221.461 365.971 221.371 365.985 221.277C365.999 221.183 365.989 221.086 365.958 220.996L364.713 217.41C364.672 217.293 364.596 217.191 364.495 217.119C364.393 217.047 364.272 217.008 364.147 217.008H347.947Z" fill="#D72D2E"/>
<path d="M321.062 217.008C320.93 217.008 320.802 217.052 320.698 217.132C320.593 217.212 320.518 217.324 320.484 217.451L319.515 221.036C319.491 221.125 319.488 221.218 319.506 221.308C319.524 221.398 319.562 221.483 319.618 221.555C319.674 221.628 319.746 221.687 319.829 221.728C319.911 221.768 320.002 221.789 320.094 221.789H338.507C338.602 221.789 338.697 221.767 338.781 221.723C338.866 221.679 338.94 221.616 338.995 221.538C339.05 221.461 339.086 221.371 339.1 221.277C339.114 221.183 339.104 221.086 339.073 220.996L337.828 217.41C337.787 217.293 337.711 217.191 337.609 217.119C337.508 217.047 337.386 217.008 337.262 217.008H321.062Z" fill="#D72D2E"/>
</g>
<defs>
<clipPath id="clip0">
<rect width="453" height="313" fill="white"/>
</clipPath>
</defs>
</svg>
