<svg width="334" height="294" viewBox="0 0 334 294" fill="none" xmlns="http://www.w3.org/2000/svg">
<g clip-path="url(#clip0)">
<path d="M249.152 290.469C244.528 286.141 241.72 279.305 242.457 272.65C243.193 265.995 247.754 259.877 253.671 258.463C259.588 257.05 266.332 260.962 268.129 267.365C269.118 255.021 270.258 242.16 276.182 231.648C281.546 222.129 290.837 215.319 300.907 214.1C310.976 212.882 321.578 217.484 327.858 226.288C334.138 235.092 335.676 247.892 331.277 258C328.037 265.446 322.068 270.988 315.813 275.496C295.603 289.941 271.364 295.816 247.555 292.038" fill="#F2F2F2"/>
<path d="M317.901 217.739C309.592 225.236 301.97 233.62 295.144 242.771C284.462 257.044 275.818 273.045 269.513 290.219C269.052 291.472 270.888 292.018 271.345 290.779C281.661 262.867 298.129 238.267 319.244 219.226C320.192 218.371 318.841 216.891 317.901 217.739Z" fill="white"/>
<path d="M81.6589 293.43H55.4397C54.5537 293.429 53.7043 293.039 53.0779 292.345C52.4514 291.651 52.099 290.71 52.098 289.729V229.36C52.099 228.379 52.4514 227.438 53.0779 226.744C53.7043 226.05 54.5537 225.66 55.4397 225.659H81.6589C82.5449 225.66 83.3943 226.05 84.0207 226.744C84.6472 227.438 84.9996 228.379 85.0006 229.36V289.729C84.9996 290.71 84.6472 291.651 84.0207 292.345C83.3943 293.039 82.5449 293.429 81.6589 293.43Z" fill="#D72D2E"/>
<path d="M268.859 293.715H242.64C241.754 293.714 240.904 293.324 240.278 292.63C239.651 291.936 239.299 290.995 239.298 290.013V19.4953C239.299 18.5139 239.651 17.573 240.278 16.879C240.904 16.185 241.754 15.7947 242.64 15.7935H268.859C269.745 15.7947 270.594 16.185 271.221 16.879C271.847 17.573 272.2 18.5139 272.201 19.4953V290.013C272.2 290.995 271.847 291.936 271.221 292.63C270.594 293.324 269.745 293.714 268.859 293.715Z" fill="#D72D2E"/>
<path d="M105.792 126.636C105.887 125.805 105.816 124.962 105.585 124.164C105.354 123.367 104.968 122.636 104.455 122.022C103.941 121.408 103.312 120.926 102.612 120.61C101.912 120.295 101.158 120.153 100.403 120.195L91.264 101.624L89.2076 109.597L95.4688 126.617C95.6168 128.017 96.2232 129.309 97.1731 130.247C98.123 131.184 99.3505 131.704 100.623 131.706C101.895 131.708 103.124 131.193 104.077 130.259C105.03 129.324 105.64 128.035 105.792 126.636V126.636Z" fill="#A0616A"/>
<path d="M35.3785 199.963L40.4686 204.08L57.2258 184.288L49.7127 178.212L35.3785 199.963Z" fill="#A0616A"/>
<path d="M46.8353 217.256L30.8365 204.317L35.3492 197.47L45.1667 205.409C46.8061 206.735 47.9029 208.728 48.2159 210.95C48.5288 213.172 48.0322 215.44 46.8354 217.256L46.8353 217.256Z" fill="#2F2E41"/>
<path d="M62.3098 221.755L68.6127 221.754L71.6109 194.823L62.3088 194.824L62.3098 221.755Z" fill="#A0616A"/>
<path d="M80.7684 228.237L60.9596 228.238L60.9593 219.76L73.1146 219.759C75.1444 219.759 77.0911 220.653 78.5265 222.242C79.9619 223.832 80.7683 225.989 80.7684 228.237Z" fill="#2F2E41"/>
<path d="M81.239 116.716C81.239 116.716 84.3236 149.748 76.6121 172.528L70.9569 215.811H61.189L62.2172 164.555L58.6185 118.994C58.6185 118.994 65.8159 98.4917 81.239 116.716Z" fill="#2F2E41"/>
<path d="M47.8224 118.994L58.1044 158.29L38.0544 193.6L48.0794 202.997L70.957 163.416L64.2737 115.007L47.8224 118.994Z" fill="#2F2E41"/>
<path d="M74.0436 30.8756C81.0172 30.8756 86.6705 24.6131 86.6705 16.8878C86.6705 9.16258 81.0172 2.90002 74.0436 2.90002C67.0699 2.90002 61.4167 9.16258 61.4167 16.8878C61.4167 24.6131 67.0699 30.8756 74.0436 30.8756Z" fill="#A0616A"/>
<path d="M63.5024 36.1301C63.5024 36.1301 71.214 30.435 79.9537 42.9642L82.2672 121.842C82.2672 121.842 75.5839 111.59 61.7031 121.272C47.8223 130.954 44.7377 120.133 44.7377 120.133C44.7377 120.133 34.9697 38.6929 63.5024 36.1301Z" fill="#CCCCCC"/>
<path d="M79.3317 42.7654C81.5496 42.8982 83.6448 43.9349 85.2143 45.676C86.7838 47.417 87.7166 49.7395 87.8333 52.1967L89.4646 86.5319L100.261 118.994L94.0916 124.689L74.0415 85.9624L69.9366 54.1306C69.7484 52.6716 69.8546 51.1846 70.2475 49.7765C70.6404 48.3684 71.3102 47.0744 72.2087 45.9875C73.1072 44.9006 74.212 44.0478 75.4437 43.4907C76.6754 42.9336 78.0033 42.6858 79.3317 42.7654Z" fill="#CCCCCC"/>
<path d="M64.7655 27.38C66.8298 29.8159 70.6634 28.5083 70.9324 25.1805C70.9535 24.9222 70.952 24.6621 70.9278 24.4041C70.7889 22.9301 70.0202 21.5918 70.2043 20.0354C70.246 19.6481 70.3763 19.2789 70.5828 18.963C72.2278 16.5228 76.0892 20.0544 77.6416 17.8454C78.5936 16.4909 77.4746 14.3583 78.2051 12.8444C79.1692 10.8463 82.0249 11.832 83.8158 10.7378C85.8083 9.52027 85.6891 6.13368 84.3775 4.07378C82.7779 1.56167 79.9734 0.221178 77.2038 0.0279709C74.4341 -0.165236 71.6836 0.664166 69.0979 1.78044C66.16 3.04875 63.2467 4.8016 61.4388 7.66328C59.2402 11.1434 59.0286 15.8221 60.1282 19.8914C60.7971 22.3669 63.0798 25.3909 64.7655 27.38Z" fill="#2F2E41"/>
<path d="M333.388 293.758H0.612134C0.450093 293.758 0.294845 293.686 0.18043 293.559C0.0660158 293.432 0.00177765 293.26 0.00177765 293.08C0.00177765 292.901 0.0660158 292.729 0.18043 292.602C0.294845 292.474 0.450093 292.403 0.612134 292.402H333.388C333.55 292.403 333.705 292.474 333.82 292.602C333.934 292.729 333.998 292.901 333.998 293.08C333.998 293.26 333.934 293.432 333.82 293.559C333.705 293.686 333.55 293.758 333.388 293.758Z" fill="#3F3D56"/>
<path d="M210.693 293.688H184.474C183.452 293.686 182.471 293.236 181.749 292.435C181.026 291.634 180.619 290.549 180.618 289.416V97.4908C180.619 96.3584 181.026 95.2727 181.749 94.4719C182.471 93.6712 183.452 93.2207 184.474 93.2195H210.693C211.715 93.2207 212.695 93.6712 213.418 94.4719C214.141 95.2727 214.548 96.3584 214.549 97.4908V289.416C214.548 290.549 214.141 291.634 213.418 292.435C212.695 293.236 211.715 293.686 210.693 293.688ZM184.474 94.3585C183.724 94.3594 183.005 94.6898 182.475 95.277C181.945 95.8642 181.647 96.6604 181.646 97.4908V289.416C181.647 290.247 181.945 291.043 182.475 291.63C183.005 292.217 183.724 292.548 184.474 292.549H210.693C211.443 292.548 212.161 292.217 212.692 291.63C213.222 291.043 181.748 293.266 181.749 292.435V100.51C181.748 99.6792 213.222 95.8642 212.692 95.277C212.161 94.6898 211.443 94.3594 210.693 94.3585H184.474Z" fill="white"/>
<path d="M146.903 316.169H120.684C119.662 316.167 118.682 315.459 117.959 314.201C117.236 312.942 116.829 311.235 116.828 309.455V125.032C116.829 123.251 117.236 121.545 117.959 120.286C118.682 119.027 119.662 118.319 120.684 118.317H146.903C147.926 118.319 148.906 119.027 149.629 120.286C150.351 121.545 117.855 123.251 117.857 125.032V309.455C117.855 311.235 150.351 312.942 149.629 314.201C148.906 315.459 147.926 316.167 146.903 316.169ZM120.684 120.108C119.934 120.109 119.216 120.628 118.686 121.551C118.156 122.475 117.857 123.726 117.857 125.032V309.455C117.857 310.76 118.156 312.012 118.686 312.935C119.216 313.858 119.934 314.377 120.684 314.379H146.903C147.653 314.377 148.372 313.858 148.902 312.935C149.432 312.012 149.73 310.76 149.731 309.455V125.032C149.73 123.726 149.432 122.475 148.902 121.551C148.372 120.628 147.653 120.109 146.903 120.108H120.684Z" fill="white"/>
</g>
<defs>
<clipPath id="clip0">
<rect width="334" height="294" fill="white"/>
</clipPath>
</defs>
</svg>
