<svg id="Layer_1" enable-background="new 0 0 512.023 512.023" height="512" viewBox="0 0 512.023 512.023" width="512" xmlns="http://www.w3.org/2000/svg"><g><g clip-rule="evenodd" fill-rule="evenodd"><path d="m70.511 129.192c43.402-85.786 189.177-90.978 280.533-15.492 22.479 18.573 17.594 17.903 47.853 17.903h57.169c-39.392-72.197-118.365-121.603-203.765-121.603-93.711 0-148.226 14.667-182.279 56.978-12.541 15.583-21.765 33.95-28.009 53.786 10.518 2.818 10.644 3.147 28.498 8.428z" fill="#6d91ac"/><path d="m351.044 113.7c-91.355-75.485-237.131-70.294-280.533 15.492 17.859 5.282 26.569 9.351 41.554 29.892 12.14 16.476 21.013 28.517 33.153 44.993 14.043 19.059-9.517 40.145-28.818 22.55l-36.75-33.5c-15.895-3.653-31.79-7.306-47.686-10.959-1.814 56.816 15.113 114.969 44.858 150.225l136.235 1.385 95.782 59.736 35.827-9.805c16.843-4.61 26.421-1.643 40.024 5.582 29.529 15.685 59.059 31.369 88.588 47.054.438-.594.879-1.192 1.323-1.795 8.737-11.848 11.894-14.873 11.894-29.709 0-7.899 0-15.798 0-23.697-39.331-15.412-74.312-29.076-114.243-44.728-19.222-7.535-32.346-18.27-44.974-31.168l-73.34-74.906c-34.553-35.291-5.577-81.487 34.362-68.55l81.501 26.4h107.561c-4.416-19.964-11.676-38.957-21.296-56.59-20.89 0-36.28 0-57.169 0-30.259.001-25.374.671-47.853-17.902z" fill="#dad0d3"/><path d="m112.065 159.084c-14.986-20.541-23.695-24.61-41.554-29.892-17.854-5.281-17.98-5.611-28.498-8.429-.003-.001-.006-.002-.009-.003-6.941-1.859-12.383 3.063-14.063 7.632-4.447 12.102-8.896 24.205-13.344 36.307-1.523 4.142-3.045 8.285-4.568 12.427 7.312 1.68 14.623 3.361 21.935 5.041 15.895 3.653 31.791 7.306 47.686 10.959l36.75 33.5c19.301 17.594 42.861-3.491 28.818-22.55-12.14-16.475-21.012-28.516-33.153-44.992z" fill="#e0ef9b"/><path d="m384.69 389.292c-13.603-7.225-23.181-10.192-40.024-5.582l-35.827 9.805 134.272 83.741c10.056-13.637 19.069-25.86 30.167-40.91-29.529-15.684-59.059-31.369-88.588-47.054z" fill="#e0ef9b"/><path d="m443.111 477.257-134.272-83.741-95.782-59.736-136.235-1.385c7.118 8.437 14.971 15.563 23.476 21.046l98 18.276 203.352 126.825c11.065 6.486 23.297 3.346 29.618-5.226 4.201-5.696 8.094-10.976 11.843-16.059z" fill="#6d91ac"/><path d="m382.519 340.44c38.282 15 72.601 28.41 111.654 43.714 8.473-52.464 10.091-106.978 4.861-160.227z" fill="#cff5fd"/><path d="m288.301 161.793c-39.938-12.937-68.915 33.259-34.362 68.55l73.34 74.906c2.909 2.971 5.844 5.827 8.874 8.556l125.612-125.612h-91.963z" fill="#99ebfa"/><path d="m336.153 313.805 125.612-125.612h-91.963l-.783-.254-79.126 79.126 37.386 38.184c2.909 2.971 5.844 5.827 8.874 8.556z" fill="#cff5fd"/><path d="m461.765 188.193-125.612 125.612c10.124 9.117 21.306 16.813 36.1 22.612 3.457 1.355 6.877 2.695 10.265 4.023l116.516-116.515c-.809-8.237-1.782-16.444-2.919-24.609-1.073-7.706-5.639-11.123-13.439-11.123z" fill="#99ebfa"/></g><g><path d="m506.019 197.937c-1.629-11.702-9.145-18.744-20.766-19.64-12.615-48.569-41.925-92.895-83.123-125.433-43.162-34.09-96.373-52.864-149.829-52.864-45.01 0-92.156 2.251-132.019 18.579-41.59 17.037-69.589 47.225-85.454 92.163-7.814 1.583-13.837 7.576-16.273 14.201l-17.912 48.736c-.99 2.695-.774 5.687.594 8.212 1.367 2.525 3.755 4.34 6.554 4.983l14.049 3.229c-.034 33.753 6.272 68.302 17.954 97.956 13.222 33.563 32.271 59.078 55.088 73.786 1.091.703 2.309 1.188 3.585 1.425l96.144 17.931 201.75 125.826c.077.048.156.096.234.142 5.584 3.273 11.593 4.855 17.443 4.855 9.785 0 19.127-4.428 25.281-12.773l43.332-58.764c.655-.889 1.278-1.727 1.871-2.524 8.304-11.164 11.975-16.789 11.975-33.119v-10.976c.912-.218 1.8-.553 2.632-1.028 2.627-1.499 4.434-4.105 4.916-7.091 9.881-61.192 10.564-126.137 1.974-187.812zm-19.87 172.333c-16.938-6.636-33.114-12.966-49.293-19.297-12.047-4.714-24.098-9.43-36.459-14.27l90.371-90.371c2.581 41.356 1.047 83.376-4.619 123.938zm-135.753-177.851-60.428 60.428-28.884-29.5c-15.503-15.833-14.256-32.344-8.478-41.672 3.991-6.442 11.538-12.138 22.056-12.138 3.242 0 6.768.541 10.557 1.769h-.001zm22.511 5.774h64.715l-101.636 101.637c-.524-.526-1.047-1.052-1.561-1.578l-30.463-31.113zm93 0h16.77c2.208 0 2.922.429 2.935.429.016.021.382.513.6 2.073.902 6.475 1.687 12.99 2.378 19.531l-108.516 108.515c-1.39-.545-2.77-1.086-4.172-1.635-9.913-3.886-17.98-8.729-24.922-13.985zm-428.58-66.35c.007-.019.841-1.754 2.09-1.423 6 1.607 8.528 2.385 13.117 3.795 3.253 1 7.709 2.369 15.141 4.567 15.603 4.614 22.485 7.242 36.34 26.233l33.152 44.993c4.596 6.237 1.137 10.16-.032 11.214-2.744 2.469-8.053 3.432-13.998-1.985l-36.75-33.5c-1.271-1.158-2.819-1.97-4.496-2.355l-58.559-13.458zm4.56 62.867 32.967 7.576 34.811 31.732c7.22 6.581 14.928 9.23 22.013 9.23 7.375-.001 14.077-2.872 18.845-7.168 10.863-9.787 11.993-25.388 2.747-37.936l-33.124-44.955c-12.805-17.552-22.239-24.624-34.795-29.573 16.06-23.982 43.016-41.071 77.102-48.599 5.393-1.191 8.799-6.528 7.607-11.922-1.19-5.393-6.537-8.797-11.921-7.607-41.424 9.149-73.961 30.976-92.476 61.819-3.062-.924-5.365-1.631-7.252-2.211-1.286-.395-2.417-.742-3.507-1.072 29.234-78.357 95.016-94.024 197.397-94.024 75.359 0 146.032 40.7 186.043 101.604l-42.503.001c-10.405 0-16.127.013-19.37-1.021-2.716-.865-5.469-3.14-11.985-8.66-2.034-1.724-4.356-3.69-7.071-5.934-29.865-24.677-66.372-42.027-105.574-50.179-5.402-1.122-10.701 2.349-11.826 7.756-1.124 5.407 2.349 10.701 7.756 11.826 36.028 7.49 69.538 23.402 96.905 46.015 2.643 2.185 4.902 4.099 6.883 5.776 16.267 13.779 19.247 14.42 42.932 14.42h1.367l54.135-.002c5.961 11.655 10.839 23.892 14.499 36.59h-93.11l-79.998-25.914s0 0-.001 0c-22.304-7.224-44.202.179-55.776 18.864-12.624 20.378-8.231 46.361 11.188 66.196l73.34 74.905c11.379 11.622 26.036 24.688 48.47 33.482 21.257 8.332 41.11 16.102 60.965 23.87 15.42 6.034 30.85 12.072 46.928 18.37v16.875c0 9.363-.883 11.478-6.134 18.632l-80.984-43.012c-15.599-8.284-27.765-11.758-47.354-6.395l-31.607 8.65-92.07-57.421c-1.559-.972-3.354-1.495-5.19-1.514l-131.591-1.339c-8.938-11.409-16.758-25.444-23.167-41.714-10.255-26.03-16.007-56.214-16.514-86.017zm398.666 269.166-107.026-66.749 13.779-3.771c13.284-3.638 20.115-1.912 32.691 4.767l78.352 41.618zm-33.74 26.1-203.222-126.746c-1.059-.66-2.231-1.116-3.459-1.345l-96.009-17.905c-.624-.423-1.236-.883-1.853-1.327l107.878 1.096 218.499 136.272-5.426 7.359c-3.013 4.087-9.425 6.623-16.408 2.596z"/><path d="m277.538 187.252h-.007c-5.522 0-9.997 4.478-9.997 10s4.481 10 10.004 10 10-4.478 10-10-4.478-10-10-10z"/><path d="m96.789 307.002c5.522 0 10-4.478 10-10s-4.478-10-10-10h-.007c-5.522 0-9.997 4.478-9.997 10s4.482 10 10.004 10z"/><path d="m313.04 366.752c5.522 0 10-4.478 10-10s-4.478-10-10-10h-.008c-5.522 0-9.996 4.478-9.996 10s4.482 10 10.004 10z"/><path d="m205.072 70.729c5.522 0 10-4.478 10-10s-4.478-10-10-10h-.008c-5.522 0-9.996 4.478-9.996 10s4.482 10 10.004 10z"/></g></g></svg>