<svg width="442" height="316" viewBox="0 0 442 316" fill="none" xmlns="http://www.w3.org/2000/svg">
<g clip-path="url(#clip0)">
<path d="M441.811 316H166.559V314.954H442L441.811 316Z" fill="#3F3D56"/>
<path d="M2.2539 -3.54253e-05C1.65632 0.000660057 1.08343 0.238388 0.660879 0.660998C0.238329 1.08361 0.000634349 1.65659 -6.10352e-05 2.25425V132.1C0.000640692 132.697 0.238337 133.27 0.660886 133.693C1.08344 134.115 1.65633 134.353 2.2539 134.354H259.654C260.251 134.353 260.824 134.115 261.247 133.693C261.669 133.27 261.907 132.697 261.908 132.1V2.25423C261.907 1.65657 261.669 1.08359 261.247 0.660984C260.824 0.238375 260.251 0.000642061 259.654 -6.10352e-05L2.2539 -3.54253e-05Z" fill="#E6E6E6"/>
<path d="M5.8602 3.60684C5.26263 3.60754 4.68975 3.84527 4.2672 4.26788C3.84466 4.69048 3.60696 5.26345 3.60626 5.8611V128.493C3.60696 129.09 3.84465 129.663 4.26719 130.086C4.68974 130.509 5.26263 130.746 5.8602 130.747H256.048C256.645 130.746 257.218 130.509 257.641 130.086C258.063 129.663 258.301 129.09 258.301 128.493V5.8611C258.301 5.26344 258.063 4.69046 257.641 4.26786C257.218 3.84526 256.645 3.60754 256.048 3.60684H5.8602Z" fill="white"/>
<path d="M80.9164 82.5059H27.7234C26.8868 82.5049 26.0848 82.1721 25.4932 81.5805C24.9016 80.9888 24.5689 80.1866 24.5679 79.3499V26.1494C24.5689 25.3126 24.9016 24.5105 25.4932 23.9188C26.0848 23.3272 26.8868 22.9943 27.7234 22.9934H80.9164C81.753 22.9943 82.5551 23.3272 83.1467 23.9188C83.7382 24.5105 84.071 25.3126 84.0719 26.1494V79.3499C84.071 80.1866 83.7382 80.9888 83.1467 81.5805C82.5551 82.1721 81.753 82.5049 80.9164 82.5059ZM27.7234 23.8951C27.1259 23.8958 26.553 24.1335 26.1304 24.5561C25.7079 24.9787 25.4702 25.5517 25.4695 26.1494V79.3499C25.4702 79.9475 25.7079 80.5205 26.1304 80.9431C26.553 81.3657 27.1259 81.6035 27.7234 81.6042H80.9164C81.514 81.6035 82.0869 81.3657 82.5094 80.9431C82.932 80.5205 83.1697 79.9475 83.1704 79.3499V26.1494C83.1697 25.5517 82.932 24.9788 82.5094 24.5561C82.0869 24.1335 81.514 23.8958 80.9164 23.8951H27.7234Z" fill="#3F3D56"/>
<path d="M157.55 82.5059H104.357C103.521 82.5049 102.719 82.1721 102.127 81.5805C101.536 80.9888 101.203 80.1866 101.202 79.3499V26.1494C101.203 25.3126 101.536 24.5105 102.127 23.9188C102.719 23.3272 103.521 22.9943 104.357 22.9934H157.55C158.387 22.9943 159.189 23.3272 159.781 23.9188C160.372 24.5105 160.705 25.3126 160.706 26.1494V79.3499C160.705 80.1866 160.372 80.9888 159.781 81.5805C159.189 82.1721 158.387 82.5049 157.55 82.5059ZM104.357 23.8951C103.76 23.8958 103.187 24.1335 102.764 24.5561C102.342 24.9787 102.104 25.5517 102.103 26.1494V79.3499C102.104 79.9475 102.342 80.5205 102.764 80.9431C103.187 81.3657 103.76 81.6035 104.357 81.6042H157.55C158.148 81.6035 158.721 81.3657 159.143 80.9431C159.566 80.5205 159.804 79.9475 159.804 79.3499V26.1494C159.804 25.5517 159.566 24.9787 159.143 24.5561C158.721 24.1335 158.148 23.8958 157.55 23.8951H104.357Z" fill="#E6E6E6"/>
<path d="M108.415 27.9528C107.817 27.9535 107.244 28.1912 106.822 28.6138C106.399 29.0364 106.161 29.6094 106.161 30.2071V75.2923C106.161 75.8899 106.399 76.4629 106.822 76.8855C107.244 77.3081 107.817 77.5458 108.415 77.5465H153.493C154.091 77.5458 154.664 77.3081 155.086 76.8855C155.509 76.4629 155.747 75.8899 155.747 75.2923V30.207C155.747 29.6094 155.509 29.0364 155.086 28.6138C154.664 28.1912 154.091 27.9535 153.493 27.9528L108.415 27.9528Z" fill="#E6E6E6"/>
<path d="M32.0059 27.9528C31.4084 27.9535 30.8355 28.1912 30.4129 28.6138C29.9904 29.0364 29.7527 29.6094 29.752 30.2071V75.2923C29.7527 75.8899 29.9904 76.4629 30.4129 76.8855C30.8355 77.3081 31.4084 77.5458 32.0059 77.5465H77.0847C77.6823 77.5458 78.2552 77.3081 78.6777 76.8855C79.1003 76.4629 79.338 75.8899 79.3387 75.2923V30.207C79.338 29.6094 79.1003 29.0364 78.6777 28.6138C78.2552 28.1912 77.6823 27.9535 77.0847 27.9528L32.0059 27.9528Z" fill="#3F3D56"/>
<path d="M184.823 27.9528C184.226 27.9535 183.653 28.1912 183.23 28.6138C182.808 29.0364 182.57 29.6094 182.569 30.2071V75.2923C182.57 75.8899 182.808 76.4629 183.23 76.8855C183.653 77.3081 184.226 77.5458 184.823 77.5465H229.902C230.499 77.5458 231.072 77.3081 231.495 76.8855C231.917 76.4629 232.155 75.8899 232.156 75.2923V30.207C232.155 29.6094 231.917 29.0364 231.495 28.6138C231.072 28.1912 230.499 27.9535 229.902 27.9528L184.823 27.9528Z" fill="#D72D2E"/>
<path d="M234.184 82.5059H180.991C180.155 82.5049 179.353 82.1721 178.761 81.5804C178.17 80.9888 177.837 80.1866 177.836 79.3499V26.1494C177.837 25.3127 178.17 24.5105 178.761 23.9188C179.353 23.3272 180.155 22.9944 180.991 22.9934H234.184C235.021 22.9944 235.823 23.3272 236.415 23.9188C237.006 24.5105 237.339 25.3127 237.34 26.1494V79.3499C237.339 80.1866 237.006 80.9888 236.415 81.5804C235.823 82.1721 235.021 82.5049 234.184 82.5059ZM180.991 23.8951C180.394 23.8958 179.821 24.1335 179.398 24.5561C178.976 24.9787 178.738 25.5517 178.737 26.1494V79.3499C178.738 79.9475 178.976 80.5205 179.398 80.9431C179.821 81.3657 180.394 81.6035 180.991 81.6042H234.184C234.782 81.6035 235.355 81.3657 235.777 80.9431C236.2 80.5205 236.438 79.9475 236.438 79.3499V26.1494C236.438 25.5517 236.2 24.9788 235.777 24.5561C235.355 24.1335 234.782 23.8958 234.184 23.8951H180.991Z" fill="#D72D2E"/>
<path opacity="0.8" d="M109.541 107.303C113.774 107.303 117.205 103.871 117.205 99.6383C117.205 95.4053 113.774 91.9738 109.541 91.9738C105.309 91.9738 101.878 95.4053 101.878 99.6383C101.878 103.871 105.309 107.303 109.541 107.303Z" fill="#E6E6E6"/>
<path opacity="0.4" d="M152.817 107.303C157.05 107.303 160.481 103.871 160.481 99.6383C160.481 95.4053 157.05 91.9738 152.817 91.9738C148.585 91.9738 145.154 95.4053 145.154 99.6383C145.154 103.871 148.585 107.303 152.817 107.303Z" fill="#E6E6E6"/>
<path opacity="0.6" d="M131.179 107.303C135.412 107.303 138.843 103.871 138.843 99.6383C138.843 95.4053 135.412 91.9738 131.179 91.9738C126.947 91.9738 123.516 95.4053 123.516 99.6383C123.516 103.871 126.947 107.303 131.179 107.303Z" fill="#E6E6E6"/>
<path opacity="0.8" d="M32.9075 107.303C37.1399 107.303 40.5709 103.871 40.5709 99.6383C40.5709 95.4053 37.1399 91.9738 32.9075 91.9738C28.6752 91.9738 25.2441 95.4053 25.2441 99.6383C25.2441 103.871 28.6752 107.303 32.9075 107.303Z" fill="#3F3D56"/>
<path opacity="0.4" d="M76.1832 107.303C80.4155 107.303 83.8466 103.871 83.8466 99.6383C83.8466 95.4053 80.4155 91.9738 76.1832 91.9738C71.9508 91.9738 68.5198 95.4053 68.5198 99.6383C68.5198 103.871 71.9508 107.303 76.1832 107.303Z" fill="#3F3D56"/>
<path opacity="0.6" d="M54.5454 107.303C58.7777 107.303 62.2087 103.871 62.2087 99.6383C62.2087 95.4053 58.7777 91.9738 54.5454 91.9738C50.313 91.9738 46.882 95.4053 46.882 99.6383C46.882 103.871 50.313 107.303 54.5454 107.303Z" fill="#3F3D56"/>
<path opacity="0.8" d="M186.175 107.303C190.408 107.303 193.839 103.871 193.839 99.6383C193.839 95.4053 190.408 91.9738 186.175 91.9738C181.943 91.9738 178.512 95.4053 178.512 99.6383C178.512 103.871 181.943 107.303 186.175 107.303Z" fill="#D72D2E"/>
<path opacity="0.4" d="M229.451 107.303C233.683 107.303 237.114 103.871 237.114 99.6383C237.114 95.4053 233.683 91.9738 229.451 91.9738C225.219 91.9738 221.788 95.4053 221.788 99.6383C221.788 103.871 225.219 107.303 229.451 107.303Z" fill="#D72D2E"/>
<path opacity="0.6" d="M207.813 107.303C212.046 107.303 215.477 103.871 215.477 99.6383C215.477 95.4053 212.046 91.9738 207.813 91.9738C203.581 91.9738 200.15 95.4053 200.15 99.6383C200.15 103.871 203.581 107.303 207.813 107.303Z" fill="#D72D2E"/>
<path d="M202.77 67.3035L191.962 53.4062L198.247 48.5168L203.364 55.097L220.651 36.8464L226.432 42.3237L202.77 67.3035Z" fill="white"/>
<path d="M304.245 152.077C303.997 151.832 303.673 151.68 303.326 151.646C302.98 151.612 302.632 151.698 302.341 151.889L290.709 159.466C290.518 159.591 290.358 159.756 290.239 159.951C290.12 160.146 290.046 160.364 290.023 160.591C289.999 160.818 290.027 161.047 290.103 161.262C290.18 161.477 290.303 161.672 290.465 161.833L320.045 191.289C320.189 191.432 320.36 191.545 320.547 191.622C320.735 191.698 320.937 191.737 321.139 191.735C321.342 191.733 321.543 191.691 321.729 191.61C321.915 191.53 322.084 191.414 322.225 191.268L331.919 181.234C332.199 180.942 332.353 180.552 332.347 180.148C332.341 179.744 332.176 179.358 331.888 179.075L304.245 152.077Z" fill="#3F3D56"/>
<path d="M293.001 160.277L294.205 159.509C294.078 159.735 294.031 159.997 294.073 160.253C294.114 160.509 294.24 160.743 294.432 160.918C294.623 161.093 294.868 161.197 295.127 161.215C295.385 161.233 295.642 161.162 295.855 161.015L303.645 155.659C303.822 155.538 303.961 155.369 304.047 155.172C304.133 154.975 304.162 154.758 304.13 154.545C304.098 154.333 304.008 154.134 303.868 153.97C303.729 153.807 303.547 153.686 303.342 153.621L303.962 153.225C304.042 153.174 304.138 153.152 304.233 153.163C304.328 153.173 304.416 153.216 304.483 153.284L330.688 179.04C330.727 179.079 330.758 179.126 330.778 179.178C330.799 179.229 330.809 179.285 330.808 179.34C330.807 179.396 330.795 179.451 330.773 179.502C330.75 179.553 330.718 179.598 330.677 179.637L321.16 188.911C321.081 188.985 320.977 189.026 320.868 189.025C320.76 189.023 320.656 188.979 320.579 188.903L292.931 160.924C292.886 160.88 292.853 160.826 292.832 160.768C292.811 160.709 292.804 160.646 292.81 160.584C292.817 160.521 292.838 160.462 292.871 160.408C292.904 160.355 292.948 160.31 293.001 160.277Z" fill="white"/>
<path d="M323.245 173.353L315.206 180.933L296.086 162.039L305.789 155.722L323.245 173.353Z" fill="#D72D2E"/>
<path d="M296.829 166.702C296.881 166.65 296.91 166.579 296.91 166.505C296.91 166.432 296.881 166.361 296.829 166.309L295.157 164.636C295.104 164.586 295.033 164.557 294.96 164.557C294.887 164.557 294.816 164.586 294.763 164.636C294.711 164.689 294.682 164.759 294.682 164.833C294.682 164.907 294.711 164.978 294.763 165.03L296.435 166.702C296.488 166.753 296.559 166.781 296.632 166.781C296.705 166.781 296.776 166.753 296.829 166.702Z" fill="#E6E6E6"/>
<path d="M299.645 169.126L297.973 167.453C297.921 167.401 297.85 167.372 297.777 167.372C297.703 167.372 297.632 167.401 297.58 167.453C297.528 167.506 297.498 167.576 297.498 167.65C297.498 167.724 297.528 167.795 297.58 167.847L299.252 169.519C299.278 169.545 299.309 169.566 299.342 169.58C299.376 169.594 299.412 169.601 299.449 169.601C299.485 169.601 299.521 169.594 299.555 169.58C299.589 169.566 299.62 169.545 299.645 169.519C299.671 169.493 299.692 169.463 299.706 169.429C299.72 169.395 299.727 169.359 299.727 169.322C299.727 169.286 299.72 169.25 299.706 169.216C299.692 169.182 299.671 169.152 299.645 169.126Z" fill="#E6E6E6"/>
<path d="M323.059 181.737C324.096 181.737 324.937 180.897 324.937 179.859C324.937 178.822 324.096 177.981 323.059 177.981C322.022 177.981 321.181 178.822 321.181 179.859C321.181 180.897 322.022 181.737 323.059 181.737Z" fill="#D72D2E"/>
<path d="M377.485 183.707L376.038 190.764C375.83 191.777 375.895 192.827 376.226 193.807C376.557 194.787 377.142 195.661 377.922 196.341C378.701 197.02 379.647 197.481 380.663 197.675C381.679 197.869 382.728 197.79 383.703 197.446C385.115 196.947 386.281 195.926 386.961 194.592C387.642 193.258 387.784 191.714 387.359 190.278L385.412 183.707L403.027 132.176H388.054L377.485 183.707Z" fill="#FFB8B8"/>
<path d="M361.632 81.0857C369.171 81.0857 375.283 74.9728 375.283 67.4322C375.283 59.8916 369.171 53.7787 361.632 53.7787C354.092 53.7787 347.98 59.8916 347.98 67.4322C347.98 74.9728 354.092 81.0857 361.632 81.0857Z" fill="#FFB8B8"/>
<path d="M359.43 91.6561L377.485 89.454C373.343 84.2597 371.777 78.8365 373.082 73.1578L356.788 74.9196L359.43 91.6561Z" fill="#FFB8B8"/>
<path d="M336.971 167.851L379.687 158.162C388.818 151.06 394.749 136.973 399.331 119.938C402.67 107.524 396.671 94.308 384.88 89.1895C384.598 89.0672 384.313 88.9494 384.025 88.8362L374.403 85.0496L358.549 86.3709L352.893 87.9137C351.694 88.2409 350.615 88.9097 349.788 89.8388C348.962 90.7678 348.423 91.917 348.238 93.1467C340.633 121.053 335.621 146.936 336.971 167.851Z" fill="#D72D2E"/>
<path d="M385.852 140.544H404.788L398.623 103.548L385.852 104.869V140.544Z" fill="#D72D2E"/>
<path d="M321.998 300.863H333.448L357.448 216.519L366.71 300.863H380.128L385.412 165.649C383.395 155.275 383.438 142.911 384.531 129.534C393.975 122.922 390.516 107.226 391.562 91.4556C391.572 91.3024 391.523 91.151 391.425 91.0327L385.339 87.8692C385.257 87.7744 385.148 87.708 385.026 87.6793C384.904 87.6506 384.776 87.6612 384.66 87.7095C384.544 87.7578 384.447 87.8414 384.382 87.9484C384.316 88.0554 384.287 88.1802 384.296 88.3052C384.142 99.3313 387.114 112.444 382.329 121.165C377.132 103.395 370.357 88.4736 357.169 85.1422C356.92 85.0804 356.658 85.0856 356.412 85.157L353.956 85.8588C353.683 85.9373 353.44 86.0937 353.254 86.3086C353.069 86.5236 352.951 86.7879 352.914 87.0691C352.876 87.3503 352.922 87.6363 353.045 87.8921C353.168 88.1478 353.362 88.3622 353.605 88.5091C365.67 95.964 373.468 108.446 373.962 129.533C364.575 142.821 355.433 150.686 338.976 160.359C338.147 160.848 337.445 161.525 336.927 162.335C336.408 163.146 336.087 164.067 335.989 165.024L321.998 300.863Z" fill="#2F2E41"/>
<path d="M363.401 79.836L373.082 78.0026L378.841 68.1628C380.238 65.7752 380.843 63.0059 380.568 60.253C380.292 57.5 379.152 54.9053 377.309 52.8415C375.874 51.2333 374.063 50.0049 372.038 49.2656C370.013 48.5263 367.837 48.299 365.703 48.6039L353.157 50.3964C352.075 50.551 351.034 50.9181 350.095 51.4766C349.156 52.0351 348.336 52.774 347.683 53.6507C347.031 54.5274 346.558 55.5245 346.292 56.5847C346.027 57.6449 345.973 58.7472 346.135 59.8281L354.586 61.266L363.401 79.836Z" fill="#2F2E41"/>
<path d="M308.593 315.617H328.76C329.713 315.617 330.654 315.412 331.52 315.016C332.385 314.62 333.156 314.043 333.779 313.322C334.402 312.602 334.862 311.756 335.129 310.842C335.396 309.928 335.463 308.967 335.326 308.024L334.06 299.342L324.906 298.664L306.716 307.174C305.888 307.561 305.201 308.195 304.747 308.989C304.294 309.782 304.097 310.697 304.183 311.607C304.288 312.704 304.798 313.723 305.613 314.465C306.429 315.207 307.491 315.617 308.593 315.617Z" fill="#2F2E41"/>
<path d="M354.392 315.617H374.559C375.511 315.617 376.452 315.412 377.318 315.016C378.184 314.62 378.955 314.043 379.578 313.322C380.2 312.602 380.661 311.756 380.928 310.842C381.195 309.928 381.262 308.967 381.124 308.024L379.858 299.342L370.705 298.664L352.515 307.174C351.687 307.561 350.999 308.195 350.546 308.989C350.092 309.782 349.895 310.697 349.982 311.607C350.087 312.704 350.596 313.723 351.412 314.465C352.227 315.207 353.29 315.617 354.392 315.617Z" fill="#2F2E41"/>
<path d="M316.063 167.498L307.338 170.531C306.292 170.895 305.363 171.534 304.649 172.38C303.934 173.226 303.461 174.25 303.278 175.342C303.096 176.434 303.21 177.556 303.61 178.589C304.011 179.621 304.681 180.528 305.552 181.212C306.561 182.005 307.792 182.463 309.073 182.524C310.355 182.584 311.624 182.243 312.703 181.549L320.655 176.43L347.808 148.826L352.016 116.38C352.552 112.248 352.034 108.047 350.511 104.168C348.987 100.29 346.508 96.8596 343.303 94.1969L334.448 143.621L316.063 167.498Z" fill="#FFB9B9"/>
<path d="M334.769 133.938H354.146L353.705 87.6923C349.105 88.8425 344.99 91.4275 341.956 95.0728C338.923 98.7181 337.128 103.235 336.832 107.968L334.769 133.938Z" fill="#D72D2E"/>
<path d="M357.648 72.1636C358.972 72.1636 360.045 70.8755 360.045 69.2864C360.045 67.6974 358.972 66.4092 357.648 66.4092C356.324 66.4092 355.25 67.6974 355.25 69.2864C355.25 70.8755 356.324 72.1636 357.648 72.1636Z" fill="#FFB8B8"/>
</g>
<defs>
<clipPath id="clip0">
<rect width="442" height="316" fill="white"/>
</clipPath>
</defs>
</svg>
